<svg id="visual" viewBox="0 0 900 600" width="900" height="600" xmlns="http://www.w3.org/2000/svg" xmlns:xlink="http://www.w3.org/1999/xlink" version="1.1"><g stroke-width="1" stroke-linejoin="bevel"><path d="M502.9 293L501.9 239L389.1 266Z" fill="#6229a6" stroke="#6229a6"></path><path d="M501.9 239L385.1 220L389.1 266Z" fill="#5a269b" stroke="#5a269b"></path><path d="M440.1 414L519.9 355L502.9 293Z" fill="#351665" stroke="#351665"></path><path d="M502.9 293L605.7 208L501.9 239Z" fill="#351665" stroke="#351665"></path><path d="M413.1 117L365.3 172L385.1 220Z" fill="#220c47" stroke="#220c47"></path><path d="M311.3 219L328.3 308L389.1 266Z" fill="#220c47" stroke="#220c47"></path><path d="M311.3 219L389.1 266L385.1 220Z" fill="#5a269b" stroke="#5a269b"></path><path d="M389.1 266L440.1 414L502.9 293Z" fill="#6229a6" stroke="#6229a6"></path><path d="M365.3 172L311.3 219L385.1 220Z" fill="#5a269b" stroke="#5a269b"></path><path d="M529.9 437L543.7 379L519.9 355Z" fill="#351665" stroke="#351665"></path><path d="M519.9 355L597.7 339L502.9 293Z" fill="#1c093d" stroke="#1c093d"></path><path d="M328.3 308L440.1 414L389.1 266Z" fill="#351665" stroke="#351665"></path><path d="M501.9 239L413.1 117L385.1 220Z" fill="#351665" stroke="#351665"></path><path d="M365.3 172L255.5 201L311.3 219Z" fill="#522390" stroke="#522390"></path><path d="M605.7 208L484.9 111L501.9 239Z" fill="#280f51" stroke="#280f51"></path><path d="M501.9 239L484.9 111L413.1 117Z" fill="#1c093d" stroke="#1c093d"></path><path d="M484.9 111L443.1 105L413.1 117Z" fill="#6229a6" stroke="#6229a6"></path><path d="M543.7 379L597.7 339L519.9 355Z" fill="#431c7b" stroke="#431c7b"></path><path d="M597.7 339L605.7 208L502.9 293Z" fill="#2f135b" stroke="#2f135b"></path><path d="M281.5 347L314.3 370L328.3 308Z" fill="#351665" stroke="#351665"></path><path d="M328.3 308L314.3 370L440.1 414Z" fill="#351665" stroke="#351665"></path><path d="M213.5 329L281.5 347L328.3 308Z" fill="#5a269b" stroke="#5a269b"></path><path d="M440.1 414L529.9 437L519.9 355Z" fill="#2f135b" stroke="#2f135b"></path><path d="M543.7 379L625.5 412L597.7 339Z" fill="#6229a6" stroke="#6229a6"></path><path d="M529.9 437L540.7 436L543.7 379Z" fill="#4b1f85" stroke="#4b1f85"></path><path d="M314.3 370L418.1 460L440.1 414Z" fill="#351665" stroke="#351665"></path><path d="M440.1 414L418.1 460L529.9 437Z" fill="#3c1970" stroke="#3c1970"></path><path d="M529.9 437L561.7 521L540.7 436Z" fill="#280f51" stroke="#280f51"></path><path d="M411.1 493L418.1 460L291.3 489Z" fill="#4b1f85" stroke="#4b1f85"></path><path d="M597.7 339L644.5 209L605.7 208Z" fill="#3c1970" stroke="#3c1970"></path><path d="M567.7 56L494.9 66L484.9 111Z" fill="#6229a6" stroke="#6229a6"></path><path d="M225.5 138L255.5 201L365.3 172Z" fill="#6229a6" stroke="#6229a6"></path><path d="M311.3 219L213.5 329L328.3 308Z" fill="#6229a6" stroke="#6229a6"></path><path d="M610.7 112L484.9 111L605.7 208Z" fill="#6229a6" stroke="#6229a6"></path><path d="M484.9 111L494.9 66L443.1 105Z" fill="#5a269b" stroke="#5a269b"></path><path d="M403.1 0L318.3 60L413.1 117Z" fill="#280f51" stroke="#280f51"></path><path d="M413.1 117L318.3 60L365.3 172Z" fill="#6229a6" stroke="#6229a6"></path><path d="M650.5 118L610.7 112L605.7 208Z" fill="#3c1970" stroke="#3c1970"></path><path d="M540.7 436L625.5 412L543.7 379Z" fill="#3c1970" stroke="#3c1970"></path><path d="M597.7 339L669.5 337L644.5 209Z" fill="#522390" stroke="#522390"></path><path d="M291.3 489L418.1 460L314.3 370Z" fill="#6229a6" stroke="#6229a6"></path><path d="M418.1 460L517.9 544L529.9 437Z" fill="#5a269b" stroke="#5a269b"></path><path d="M540.7 436L561.7 521L625.5 412Z" fill="#1c093d" stroke="#1c093d"></path><path d="M625.5 412L669.5 337L597.7 339Z" fill="#4b1f85" stroke="#4b1f85"></path><path d="M610.7 112L567.7 56L484.9 111Z" fill="#1c093d" stroke="#1c093d"></path><path d="M255.5 201L213.5 329L311.3 219Z" fill="#280f51" stroke="#280f51"></path><path d="M270.5 482L291.3 489L314.3 370Z" fill="#431c7b" stroke="#431c7b"></path><path d="M403.1 0L443.1 105L494.9 66Z" fill="#522390" stroke="#522390"></path><path d="M403.1 0L413.1 117L443.1 105Z" fill="#220c47" stroke="#220c47"></path><path d="M644.5 209L650.5 118L605.7 208Z" fill="#431c7b" stroke="#431c7b"></path><path d="M610.7 112L656.5 105L567.7 56Z" fill="#2f135b" stroke="#2f135b"></path><path d="M656.5 105L650.5 118L702.4 105Z" fill="#351665" stroke="#351665"></path><path d="M239.5 94L225.5 138L365.3 172Z" fill="#6229a6" stroke="#6229a6"></path><path d="M255.5 201L186.6 222L213.5 329Z" fill="#522390" stroke="#522390"></path><path d="M702.4 105L650.5 118L644.5 209Z" fill="#3c1970" stroke="#3c1970"></path><path d="M650.5 118L656.5 105L610.7 112Z" fill="#3c1970" stroke="#3c1970"></path><path d="M225.5 138L186.6 222L255.5 201Z" fill="#6229a6" stroke="#6229a6"></path><path d="M540.7 0L494.9 66L567.7 56Z" fill="#280f51" stroke="#280f51"></path><path d="M540.7 0L493.9 0L494.9 66Z" fill="#1c093d" stroke="#1c093d"></path><path d="M493.9 0L403.1 0L494.9 66Z" fill="#522390" stroke="#522390"></path><path d="M318.3 60L239.5 94L365.3 172Z" fill="#220c47" stroke="#220c47"></path><path d="M225.5 138L188.6 130L186.6 222Z" fill="#6229a6" stroke="#6229a6"></path><path d="M240.5 0L239.5 94L318.3 60Z" fill="#431c7b" stroke="#431c7b"></path><path d="M270.5 482L314.3 370L281.5 347Z" fill="#5a269b" stroke="#5a269b"></path><path d="M517.9 544L418.1 460L411.1 493Z" fill="#280f51" stroke="#280f51"></path><path d="M517.9 544L561.7 521L529.9 437Z" fill="#3c1970" stroke="#3c1970"></path><path d="M625.5 412L699.4 413L669.5 337Z" fill="#6229a6" stroke="#6229a6"></path><path d="M185.6 410L270.5 482L281.5 347Z" fill="#351665" stroke="#351665"></path><path d="M682.5 0L540.7 0L567.7 56Z" fill="#220c47" stroke="#220c47"></path><path d="M406.1 600L517.9 544L411.1 493Z" fill="#431c7b" stroke="#431c7b"></path><path d="M668.5 466L699.4 413L625.5 412Z" fill="#3c1970" stroke="#3c1970"></path><path d="M744.4 122L702.4 105L644.5 209Z" fill="#3c1970" stroke="#3c1970"></path><path d="M239.5 94L188.6 130L225.5 138Z" fill="#220c47" stroke="#220c47"></path><path d="M561.7 521L668.5 466L625.5 412Z" fill="#6229a6" stroke="#6229a6"></path><path d="M667.5 552L668.5 466L561.7 521Z" fill="#3c1970" stroke="#3c1970"></path><path d="M403.1 0L318.3 0L318.3 60Z" fill="#6229a6" stroke="#6229a6"></path><path d="M239.5 94L147.6 83L188.6 130Z" fill="#4b1f85" stroke="#4b1f85"></path><path d="M149.6 318L185.6 410L213.5 329Z" fill="#522390" stroke="#522390"></path><path d="M213.5 329L185.6 410L281.5 347Z" fill="#2f135b" stroke="#2f135b"></path><path d="M761.4 279L644.5 209L669.5 337Z" fill="#431c7b" stroke="#431c7b"></path><path d="M656.5 105L682.5 0L567.7 56Z" fill="#2f135b" stroke="#2f135b"></path><path d="M186.6 222L149.6 318L213.5 329Z" fill="#6229a6" stroke="#6229a6"></path><path d="M85.8 187L149.6 318L186.6 222Z" fill="#522390" stroke="#522390"></path><path d="M270.5 482L259.5 508L291.3 489Z" fill="#280f51" stroke="#280f51"></path><path d="M291.3 489L294.3 549L411.1 493Z" fill="#280f51" stroke="#280f51"></path><path d="M161.6 486L259.5 508L270.5 482Z" fill="#431c7b" stroke="#431c7b"></path><path d="M791.2 335L761.4 279L669.5 337Z" fill="#2f135b" stroke="#2f135b"></path><path d="M761.4 279L763.4 240L644.5 209Z" fill="#6229a6" stroke="#6229a6"></path><path d="M259.5 508L294.3 549L291.3 489Z" fill="#280f51" stroke="#280f51"></path><path d="M781.2 208L744.4 122L644.5 209Z" fill="#2f135b" stroke="#2f135b"></path><path d="M702.4 105L682.5 0L656.5 105Z" fill="#522390" stroke="#522390"></path><path d="M322.3 600L406.1 600L411.1 493Z" fill="#4b1f85" stroke="#4b1f85"></path><path d="M900 233L781.2 208L763.4 240Z" fill="#351665" stroke="#351665"></path><path d="M763.4 240L781.2 208L644.5 209Z" fill="#5a269b" stroke="#5a269b"></path><path d="M318.3 0L240.5 0L318.3 60Z" fill="#3c1970" stroke="#3c1970"></path><path d="M406.1 600L519.9 600L517.9 544Z" fill="#220c47" stroke="#220c47"></path><path d="M517.9 544L569.7 600L561.7 521Z" fill="#220c47" stroke="#220c47"></path><path d="M783.2 379L791.2 335L669.5 337Z" fill="#4b1f85" stroke="#4b1f85"></path><path d="M761.4 279L900 233L763.4 240Z" fill="#5a269b" stroke="#5a269b"></path><path d="M783.2 379L669.5 337L699.4 413Z" fill="#220c47" stroke="#220c47"></path><path d="M765.4 471L699.4 413L668.5 466Z" fill="#431c7b" stroke="#431c7b"></path><path d="M765.4 471L783.2 379L699.4 413Z" fill="#2f135b" stroke="#2f135b"></path><path d="M187.6 0L147.6 83L239.5 94Z" fill="#351665" stroke="#351665"></path><path d="M188.6 130L98.8 169L186.6 222Z" fill="#2f135b" stroke="#2f135b"></path><path d="M519.9 600L569.7 600L517.9 544Z" fill="#351665" stroke="#351665"></path><path d="M731.4 0L682.5 0L702.4 105Z" fill="#220c47" stroke="#220c47"></path><path d="M274.5 600L322.3 600L294.3 549Z" fill="#280f51" stroke="#280f51"></path><path d="M294.3 549L322.3 600L411.1 493Z" fill="#4b1f85" stroke="#4b1f85"></path><path d="M274.5 600L294.3 549L259.5 508Z" fill="#431c7b" stroke="#431c7b"></path><path d="M639.5 600L667.5 552L561.7 521Z" fill="#4b1f85" stroke="#4b1f85"></path><path d="M185.6 410L161.6 486L270.5 482Z" fill="#280f51" stroke="#280f51"></path><path d="M130.6 496L161.6 486L89.8 429Z" fill="#280f51" stroke="#280f51"></path><path d="M147.6 83L98.8 169L188.6 130Z" fill="#6229a6" stroke="#6229a6"></path><path d="M149.6 318L89.8 429L185.6 410Z" fill="#522390" stroke="#522390"></path><path d="M0 117L85.8 187L98.8 169Z" fill="#351665" stroke="#351665"></path><path d="M98.8 169L85.8 187L186.6 222Z" fill="#431c7b" stroke="#431c7b"></path><path d="M240.5 0L187.6 0L239.5 94Z" fill="#1c093d" stroke="#1c093d"></path><path d="M147.6 83L67.8 49L98.8 169Z" fill="#220c47" stroke="#220c47"></path><path d="M198.6 600L274.5 600L259.5 508Z" fill="#3c1970" stroke="#3c1970"></path><path d="M744.4 532L765.4 471L668.5 466Z" fill="#6229a6" stroke="#6229a6"></path><path d="M569.7 600L639.5 600L561.7 521Z" fill="#4b1f85" stroke="#4b1f85"></path><path d="M667.5 552L744.4 532L668.5 466Z" fill="#220c47" stroke="#220c47"></path><path d="M85.8 187L67.8 317L149.6 318Z" fill="#3c1970" stroke="#3c1970"></path><path d="M815.2 102L731.4 0L744.4 122Z" fill="#6229a6" stroke="#6229a6"></path><path d="M744.4 122L731.4 0L702.4 105Z" fill="#522390" stroke="#522390"></path><path d="M89.8 429L161.6 486L185.6 410Z" fill="#2f135b" stroke="#2f135b"></path><path d="M161.6 486L198.6 600L259.5 508Z" fill="#4b1f85" stroke="#4b1f85"></path><path d="M51.8 336L89.8 429L149.6 318Z" fill="#1c093d" stroke="#1c093d"></path><path d="M774.4 600L744.4 532L667.5 552Z" fill="#3c1970" stroke="#3c1970"></path><path d="M781.2 208L815.2 102L744.4 122Z" fill="#280f51" stroke="#280f51"></path><path d="M857.2 174L815.2 102L781.2 208Z" fill="#431c7b" stroke="#431c7b"></path><path d="M0 266L51.8 336L67.8 317Z" fill="#1c093d" stroke="#1c093d"></path><path d="M67.8 317L51.8 336L149.6 318Z" fill="#280f51" stroke="#280f51"></path><path d="M130.6 496L198.6 600L161.6 486Z" fill="#522390" stroke="#522390"></path><path d="M900 233L857.2 174L781.2 208Z" fill="#4b1f85" stroke="#4b1f85"></path><path d="M900 233L761.4 279L900 313Z" fill="#1c093d" stroke="#1c093d"></path><path d="M900 313L791.2 335L900 409Z" fill="#5a269b" stroke="#5a269b"></path><path d="M804.2 544L831.2 481L765.4 471Z" fill="#3c1970" stroke="#3c1970"></path><path d="M765.4 471L831.2 481L783.2 379Z" fill="#5a269b" stroke="#5a269b"></path><path d="M804.2 544L765.4 471L744.4 532Z" fill="#4b1f85" stroke="#4b1f85"></path><path d="M187.6 0L67.8 49L147.6 83Z" fill="#4b1f85" stroke="#4b1f85"></path><path d="M85.8 187L0 266L67.8 317Z" fill="#6229a6" stroke="#6229a6"></path><path d="M0 227L0 266L85.8 187Z" fill="#431c7b" stroke="#431c7b"></path><path d="M51.8 336L0 336L89.8 429Z" fill="#4b1f85" stroke="#4b1f85"></path><path d="M774.4 600L804.2 544L744.4 532Z" fill="#522390" stroke="#522390"></path><path d="M0 117L0 227L85.8 187Z" fill="#431c7b" stroke="#431c7b"></path><path d="M900 313L761.4 279L791.2 335Z" fill="#220c47" stroke="#220c47"></path><path d="M900 80L820.2 0L815.2 102Z" fill="#2f135b" stroke="#2f135b"></path><path d="M900 409L791.2 335L783.2 379Z" fill="#4b1f85" stroke="#4b1f85"></path><path d="M0 266L0 336L51.8 336Z" fill="#280f51" stroke="#280f51"></path><path d="M89.8 429L63.8 532L130.6 496Z" fill="#5a269b" stroke="#5a269b"></path><path d="M130.6 496L74.8 600L198.6 600Z" fill="#4b1f85" stroke="#4b1f85"></path><path d="M900 80L815.2 102L857.2 174Z" fill="#3c1970" stroke="#3c1970"></path><path d="M815.2 102L820.2 0L731.4 0Z" fill="#220c47" stroke="#220c47"></path><path d="M900 233L900 165L857.2 174Z" fill="#522390" stroke="#522390"></path><path d="M639.5 600L774.4 600L667.5 552Z" fill="#220c47" stroke="#220c47"></path><path d="M0 482L63.8 532L89.8 429Z" fill="#351665" stroke="#351665"></path><path d="M187.6 0L60.8 0L67.8 49Z" fill="#220c47" stroke="#220c47"></path><path d="M67.8 49L0 117L98.8 169Z" fill="#522390" stroke="#522390"></path><path d="M900 461L831.2 481L900 556Z" fill="#280f51" stroke="#280f51"></path><path d="M900 461L900 409L831.2 481Z" fill="#5a269b" stroke="#5a269b"></path><path d="M831.2 481L900 409L783.2 379Z" fill="#4b1f85" stroke="#4b1f85"></path><path d="M0 83L0 117L67.8 49Z" fill="#2f135b" stroke="#2f135b"></path><path d="M774.4 600L797.2 600L804.2 544Z" fill="#6229a6" stroke="#6229a6"></path><path d="M0 0L0 83L67.8 49Z" fill="#4b1f85" stroke="#4b1f85"></path><path d="M900 165L900 80L857.2 174Z" fill="#2f135b" stroke="#2f135b"></path><path d="M900 556L831.2 481L804.2 544Z" fill="#1c093d" stroke="#1c093d"></path><path d="M0 336L0 482L89.8 429Z" fill="#3c1970" stroke="#3c1970"></path><path d="M0 600L74.8 600L63.8 532Z" fill="#280f51" stroke="#280f51"></path><path d="M63.8 532L74.8 600L130.6 496Z" fill="#522390" stroke="#522390"></path><path d="M60.8 0L0 0L67.8 49Z" fill="#4b1f85" stroke="#4b1f85"></path><path d="M900 80L900 0L820.2 0Z" fill="#351665" stroke="#351665"></path><path d="M0 482L0 542L63.8 532Z" fill="#280f51" stroke="#280f51"></path><path d="M797.2 600L900 556L804.2 544Z" fill="#522390" stroke="#522390"></path><path d="M0 542L0 600L63.8 532Z" fill="#280f51" stroke="#280f51"></path><path d="M797.2 600L900 600L900 556Z" fill="#1c093d" stroke="#1c093d"></path></g></svg>